<?xml version="1.0" standalone="no"?>
<!DOCTYPE svg PUBLIC "-//W3C//DTD SVG 20010904//EN"
 "http://www.w3.org/TR/2001/REC-SVG-20010904/DTD/svg10.dtd">
<svg version="1.0" xmlns="http://www.w3.org/2000/svg"
 width="980.000000pt" height="900.000000pt" viewBox="0 0 980.000000 900.000000"
 preserveAspectRatio="xMidYMid meet">

<g transform="translate(0.000000,900.000000) scale(0.100000,-0.100000)"
fill="#000000" stroke="none">
<path d="M9560 8985 c-41 -7 -189 -38 -329 -70 -762 -171 -1411 -401 -2126
-755 -689 -341 -1172 -642 -1925 -1198 -113 -84 -212 -152 -220 -152 -21 0
-93 56 -310 240 -588 498 -1128 904 -1757 1321 -578 383 -831 514 -1091 565
-119 23 -365 34 -536 24 -178 -11 -313 -35 -491 -89 -409 -124 -604 -263 -719
-513 -47 -101 -59 -174 -54 -321 4 -120 5 -126 44 -208 46 -94 118 -180 193
-228 26 -17 124 -61 217 -97 713 -275 1588 -720 2314 -1177 335 -211 913 -607
918 -630 4 -17 -101 -140 -353 -412 -746 -809 -1270 -1466 -1815 -2280 -505
-755 -630 -1019 -661 -1393 -29 -354 57 -822 211 -1146 115 -241 277 -381 520
-447 67 -19 243 -16 319 5 83 23 171 67 221 112 66 60 124 167 223 414 453
1126 1048 2177 1833 3237 218 294 717 913 736 913 24 0 641 -594 976 -940 815
-842 1430 -1595 2382 -2915 340 -472 471 -645 553 -729 61 -63 79 -76 106 -76
64 0 65 70 6 370 -278 1409 -939 2826 -1943 4165 -251 334 -475 604 -815 983
-106 118 -196 220 -200 228 -12 21 26 68 178 219 320 319 1029 934 1521 1321
272 214 752 573 1119 839 182 131 420 304 530 383 295 214 471 370 463 411 -7
38 -106 49 -238 26z"/>
</g>
</svg>
