<?xml version="1.0" standalone="no"?>
<!DOCTYPE svg PUBLIC "-//W3C//DTD SVG 20010904//EN"
 "http://www.w3.org/TR/2001/REC-SVG-20010904/DTD/svg10.dtd">
<svg version="1.0" xmlns="http://www.w3.org/2000/svg"
 width="937.000000pt" height="1024.000000pt" viewBox="0 0 937.000000 1024.000000"
 preserveAspectRatio="xMidYMid meet">

<g transform="translate(0.000000,1024.000000) scale(0.100000,-0.100000)"
fill="#000000" stroke="none">
<path d="M9185 10113 c-969 -684 -1928 -1549 -2915 -2634 -1196 -1313 -2426
-2971 -3510 -4733 -109 -176 -205 -325 -213 -330 -12 -8 -294 176 -1269 826
-689 460 -1254 835 -1256 833 -2 -2 80 -120 184 -262 439 -603 2041 -2796
2619 -3585 88 -120 162 -214 166 -210 4 4 77 173 164 376 1400 3288 2868 5810
4749 8156 430 537 1045 1247 1400 1618 28 28 46 52 41 51 -6 0 -77 -48 -160
-106z"/>
</g>
</svg>
